<svg version="1.1" preserveAspectRatio="none" xmlns="http://www.w3.org/2000/svg" width="500" height="500" viewBox="0 0 500 500"><rect width="100%" height="100%" fill="#005F40" fill-opacity="1"/><svg viewBox="88.6785 206.6106 384.1042 264.2947" width="333" height="229.13088453601912" x="83.5px" y="135.4346px" xmlns="http://www.w3.org/2000/svg" xmlns:xlink="http://www.w3.org/1999/xlink" preserveAspectRatio="none"><defs></defs><style>.companyName {fill:#EDEDED;fill-opacity:1;}.icon1 {fill:#EDEDED;fill-opacity:1;}.icon2 {fill:#163D26;fill-opacity:1;}.icon3 {fill:#9C9C9C;fill-opacity:1;}.icon3-str {stroke:#9C9C9C;stroke-opacity:1;}</style><g opacity="1" transform="rotate(0 88.6785 390.9053)">
<svg width="384.1042" height="80" x="88.6785" y="390.9053" version="1.1" preserveAspectRatio="none" viewBox="0.48 -32.4 157.48000000000002 32.8">
  <g transform="matrix(1 0 0 1 0 0)" class="companyName"><path id="id-D6z1nYkh9" d="M5.48 0L5.48-27.52L0.48-27.52L0.48-32.40L17.04-32.40L17.04-27.52L12.12-27.52L12.12 0L5.48 0Z M19.68 0L19.68-23.12L25.72-23.12L25.72-19.40Q26.92-21.48 28.06-22.44Q29.20-23.40 30.72-23.40L30.72-23.40Q31.08-23.40 31.64-23.32L31.64-23.32L31.64-17.16Q30.60-17.64 29.48-17.64L29.48-17.64Q27.28-17.64 25.72-15.40L25.72-15.40L25.72 0L19.68 0Z M38.96 0.40Q37.36 0.40 36.16-0.40Q34.96-1.20 34.34-2.50Q33.72-3.80 33.72-5.20L33.72-5.20Q33.72-7.88 35.04-9.60Q36.36-11.32 38.22-12.28Q40.08-13.24 43.16-14.36L43.16-14.36L43.16-16.52Q43.16-17.76 42.82-18.40Q42.48-19.04 41.60-19.04L41.60-19.04Q40.72-19.04 40.36-18.48Q40-17.92 39.92-16.88L39.92-16.88L39.80-15.28L34.12-15.52Q34.28-19.64 36.24-21.58Q38.20-23.52 42.12-23.52L42.12-23.52Q45.52-23.52 47.24-21.64Q48.96-19.76 48.96-16.48L48.96-16.48L48.96-5.72Q48.96-3 49.36 0L49.36 0L43.96 0Q43.80-1.16 43.44-3.32L43.44-3.32Q42.96-1.72 41.82-0.66Q40.68 0.40 38.96 0.40L38.96 0.40ZM41.12-3.88Q41.72-3.88 42.26-4.28Q42.80-4.68 43.16-5.20L43.16-5.20L43.16-11.56Q41.28-10.48 40.28-9.32Q39.28-8.16 39.28-6.48L39.28-6.48Q39.28-5.24 39.76-4.56Q40.24-3.88 41.12-3.88L41.12-3.88Z M55.96 0L51.32-23.12L57.16-23.12L59.28-7.56L61.28-23.12L67.08-23.12L62.36 0L55.96 0Z M76.80 0.40Q73 0.40 71.02-1.68Q69.04-3.76 69.04-7.68L69.04-7.68L69.04-15.44Q69.04-19.36 71.04-21.44Q73.04-23.52 76.80-23.52L76.80-23.52Q80.68-23.52 82.48-21.44Q84.28-19.36 84.28-15.28L84.28-15.28L84.28-11.24L75.04-11.24L75.04-6.76Q75.04-5.28 75.50-4.60Q75.96-3.92 76.84-3.92L76.84-3.92Q78.64-3.92 78.64-6.52L78.64-6.52L78.64-8.76L84.24-8.76L84.24-6.76Q84.24-3.28 82.32-1.44Q80.40 0.40 76.80 0.40L76.80 0.40ZM75.04-14.12L78.64-14.12L78.64-16.36Q78.64-17.88 78.20-18.54Q77.76-19.20 76.80-19.20L76.80-19.20Q75.88-19.20 75.46-18.48Q75.04-17.76 75.04-15.92L75.04-15.92L75.04-14.12Z M88.16 0L88.16-32.40L94.16-32.40L94.16 0L88.16 0Z M98.88 0L98.88-32.40L105.48-32.40L105.48-19.12L111.20-19.12L111.20-32.40L117.80-32.40L117.80 0L111.20 0L111.20-14.36L105.48-14.36L105.48 0L98.88 0Z M126.28 0.40Q124.28 0.40 123.22-1.08Q122.16-2.56 122.16-4.88L122.16-4.88L122.16-23.12L128.20-23.12L128.20-5.72Q128.20-4.76 128.54-4.28Q128.88-3.80 129.68-3.80L129.68-3.80Q130.52-3.80 131.80-4.68L131.80-4.68L131.80-23.12L137.84-23.12L137.84 0L131.80 0L131.80-2.16Q129.04 0.40 126.28 0.40L126.28 0.40Z M152.76 0.40Q150.44 0.40 148.04-1.72L148.04-1.72L148.04 0L142 0L142-32.40L148.04-32.40L148.04-21.40Q150.36-23.52 152.96-23.52L152.96-23.52Q155.56-23.52 156.76-21.42Q157.96-19.32 157.96-16.28L157.96-16.28L157.96-7.24Q157.96-3.80 156.64-1.70Q155.32 0.40 152.76 0.40L152.76 0.40ZM150.12-3.64Q151.12-3.64 151.52-4.54Q151.92-5.44 151.92-7L151.92-7L151.92-16.68Q151.92-19.72 150.16-19.72L150.16-19.72Q149.12-19.72 148.04-18.84L148.04-18.84L148.04-4.36Q149.04-3.64 150.12-3.64L150.12-3.64Z"/></g>
</svg>
</g><g opacity="1" transform="rotate(0 203.9098 206.6106)">
<svg width="153.6416" height="144.2947" x="203.9098" y="206.6106" version="1.1" preserveAspectRatio="none" viewBox="35 43 263 247">
  <g transform="matrix(1 0 0 1 0 0)" class="icon1"><defs></defs><g><g><polygon class="fil0" points="298,43 106,232 294,231 243,142 200,184 228,174 240,198 170,198 "></polygon><polygon class="fil0" points="35,290 228,101 39,102 90,191 133,149 106,160 93,135 163,135 "></polygon></g></g></g>
</svg>
</g></svg></svg>